<svg width="157" height="29" viewBox="0 0 157 29" fill="none" xmlns="http://www.w3.org/2000/svg">
<path d="M21.2692 24.49C23.2452 22.514 24.3502 19.42 24.5842 15.208L25.3642 0.699998H28.8742L28.0942 15.364C27.9122 18.796 27.3012 21.526 26.2612 23.554C25.2472 25.582 23.5572 27.324 21.1912 28.78C19.1112 27.298 17.6682 25.478 16.8622 23.32C16.0562 21.136 15.4322 18.185 14.9902 14.467H14.8342C14.6262 18.341 14.1192 21.227 13.3132 23.125C12.5332 25.023 10.9732 26.908 8.63318 28.78C6.26718 27.324 4.56418 25.582 3.52418 23.554C2.51018 21.526 1.91218 18.796 1.73018 15.364L0.950176 0.699998H4.46018L5.24018 15.208C5.47418 19.42 6.57918 22.514 8.55518 24.49C9.82918 23.398 10.7782 21.773 11.4022 19.615C12.0262 17.431 12.6112 13.986 13.1572 9.28H16.6672C17.3952 13.336 18.0582 16.482 18.6562 18.718C19.2542 20.954 19.7092 22.371 20.0212 22.969C20.3592 23.567 20.7752 24.074 21.2692 24.49ZM38.4359 28H35.0039V12.556H31.8059L33.3659 9.28H38.4359V28ZM34.8479 5.38C34.5099 4.938 34.3409 4.457 34.3409 3.937C34.3409 3.417 34.5099 2.949 34.8479 2.533C35.1859 2.091 35.7059 1.87 36.4079 1.87C37.1099 1.87 37.6299 2.091 37.9679 2.533C38.3059 2.949 38.4749 3.417 38.4749 3.937C38.4749 4.457 38.3059 4.938 37.9679 5.38C37.6299 5.796 37.1099 6.004 36.4079 6.004C35.7059 6.004 35.1859 5.796 34.8479 5.38ZM41.6991 12.556L48.6801 5.575V9.28H53.9451V12.556H48.6801V20.59C48.6801 21.5 48.8231 22.254 49.1091 22.852C49.4211 23.45 49.8631 23.879 50.4351 24.139C51.0071 24.373 51.5401 24.529 52.0341 24.607C52.5541 24.685 53.1911 24.724 53.9451 24.724V28C50.9551 28 48.7451 27.428 47.3151 26.284C45.8851 25.14 45.1701 23.242 45.1701 20.59V12.556H41.6991ZM55.7147 12.556L62.6957 5.575V9.28H67.9607V12.556H62.6957V20.59C62.6957 21.5 62.8387 22.254 63.1247 22.852C63.4367 23.45 63.8787 23.879 64.4507 24.139C65.0227 24.373 65.5557 24.529 66.0497 24.607C66.5697 24.685 67.2067 24.724 67.9607 24.724V28C64.9707 28 62.7607 27.428 61.3307 26.284C59.9007 25.14 59.1857 23.242 59.1857 20.59V12.556H55.7147ZM75.1123 0.699998V9.28H78.4273C81.3133 9.28 83.3803 9.709 84.6283 10.567C85.7463 11.321 86.4483 12.231 86.7343 13.297C87.0463 14.337 87.2023 15.715 87.2023 17.431V28H83.7703V17.47C83.7703 17.002 83.7573 16.612 83.7313 16.3C83.7053 15.962 83.6143 15.546 83.4583 15.052C83.3023 14.532 83.0813 14.116 82.7953 13.804C82.5093 13.466 82.0933 13.18 81.5473 12.946C81.0013 12.686 80.3383 12.556 79.5583 12.556H75.1123V28H71.6803V0.699998H75.1123ZM94.0109 11.737C95.8309 9.839 98.1059 8.89 100.836 8.89C102.162 8.89 103.397 9.15 104.541 9.67C105.711 10.164 106.725 10.853 107.583 11.737C108.467 12.621 109.156 13.661 109.65 14.857C110.144 16.027 110.391 17.288 110.391 18.64C110.391 19.992 110.144 21.266 109.65 22.462C109.182 23.632 108.519 24.659 107.661 25.543C106.803 26.427 105.789 27.129 104.619 27.649C103.449 28.143 102.188 28.39 100.836 28.39C99.4579 28.39 98.1839 28.143 97.0139 27.649C95.8699 27.129 94.8689 26.427 94.0109 25.543C93.1529 24.659 92.4769 23.632 91.9829 22.462C91.5149 21.266 91.2809 19.992 91.2809 18.64C91.2809 15.884 92.1909 13.583 94.0109 11.737ZM100.836 12.166C99.0159 12.166 97.5469 12.764 96.4289 13.96C95.3369 15.156 94.7909 16.716 94.7909 18.64C94.7909 20.564 95.3369 22.124 96.4289 23.32C97.5469 24.516 99.0159 25.114 100.836 25.114C102.682 25.114 104.151 24.516 105.243 23.32C106.335 22.098 106.881 20.538 106.881 18.64C106.881 16.742 106.335 15.195 105.243 13.999C104.151 12.777 102.682 12.166 100.836 12.166ZM123.654 8.89C128.074 9.072 130.284 10.905 130.284 14.389C130.284 18.731 127.437 20.902 121.743 20.902H120.144V17.899H122.016C123.758 17.899 124.967 17.639 125.643 17.119C126.319 16.573 126.657 15.676 126.657 14.428C126.657 13.622 126.358 13.024 125.76 12.634C125.162 12.218 124.395 12.01 123.459 12.01C121.613 12.01 120.157 12.66 119.091 13.96C118.051 15.26 117.531 16.82 117.531 18.64C117.531 20.564 118.09 22.124 119.208 23.32C120.352 24.516 121.834 25.114 123.654 25.114C125.292 25.114 126.631 24.711 127.671 23.905L130.011 26.206C128.217 27.662 126.098 28.39 123.654 28.39C120.69 28.39 118.324 27.519 116.556 25.777C114.788 24.035 113.904 21.786 113.904 19.03C113.904 15.962 114.775 13.479 116.517 11.581C118.259 9.683 120.638 8.786 123.654 8.89ZM143.383 12.556H138.898V28H135.388V12.556H132.736L134.296 9.28H135.388C135.388 6.628 136.285 4.535 138.079 3.001C139.873 1.441 142.161 0.660999 144.943 0.660999V3.937C140.913 3.937 138.898 5.718 138.898 9.28H143.383V12.556ZM144.569 12.556L151.55 5.575V9.28H156.815V12.556H151.55V20.59C151.55 21.5 151.693 22.254 151.979 22.852C152.291 23.45 152.733 23.879 153.305 24.139C153.877 24.373 154.41 24.529 154.904 24.607C155.424 24.685 156.061 24.724 156.815 24.724V28C153.825 28 151.615 27.428 150.185 26.284C148.755 25.14 148.04 23.242 148.04 20.59V12.556H144.569Z" fill="white"/>
</svg>
