<svg width="400" height="154" viewBox="0 0 400 154" fill="none" xmlns="http://www.w3.org/2000/svg">
<rect width="400" height="154" rx="10" fill="url(#paint0_linear)"/>
<path d="M27.0447 98.0228C25.6796 96.3145 24.9718 94.7846 24.9718 93.4077C24.9718 92.0563 26.1094 90.246 28.3845 88.0022C29.699 86.7273 31.1147 86.0899 32.5809 86.0899C34.0723 86.0899 36.12 87.4158 38.7743 90.093C39.5074 91.0109 40.5691 91.8779 41.9595 92.6938C43.3246 93.5097 44.6138 93.9432 45.7767 93.9432C50.7061 93.9432 53.1582 91.9034 53.1582 87.8492C53.1582 86.6254 52.4757 85.6054 51.1359 84.764C49.7961 83.9481 48.1024 83.3362 46.1053 82.9537C44.0829 82.5712 41.9342 81.9848 39.6085 81.1434C37.2828 80.3274 35.1088 79.333 33.1117 78.2111C31.0894 77.0892 29.421 75.3044 28.0812 72.8821C26.7414 70.4598 26.0588 67.5276 26.0588 64.1109C26.0588 59.4194 27.8031 55.3142 31.2663 51.8211C34.7296 48.3279 39.4568 46.5685 45.4227 46.5685C48.6079 46.5685 51.4898 46.9765 54.1188 47.8179C56.7479 48.6339 58.5427 49.4753 59.5539 50.3422L61.5509 51.8721C63.1941 53.4274 64.003 54.7278 64.003 55.7987C64.003 56.8696 63.371 58.323 62.1071 60.2098C60.3122 62.887 58.4669 64.2129 56.5456 64.2129C55.4333 64.2129 54.0683 63.6775 52.4251 62.6066C52.2734 62.5046 51.9701 62.2241 51.5151 61.8161C51.06 61.3827 50.6556 61.0512 50.2764 60.7707C49.1641 60.0823 47.7484 59.7253 46.0294 59.7253C44.3105 59.7253 42.8695 60.1333 41.732 60.9747C40.5944 61.7906 40.013 62.938 40.013 64.4169C40.013 65.8958 40.6955 67.0687 42.0353 67.9866C43.3751 68.9045 45.0688 69.5164 47.0659 69.8224C49.0882 70.1539 51.2623 70.6383 53.6638 71.3013C56.04 71.9642 58.2393 72.7801 60.2617 73.749C62.284 74.7179 63.9525 76.3753 65.2923 78.7466C66.6321 81.1179 67.3146 84.0501 67.3146 87.5178C67.3146 90.9854 66.6321 94.0452 65.2417 96.6969C63.8766 99.3487 62.0565 101.388 59.8319 102.816C55.5345 105.647 50.9589 107.049 46.1053 107.049C43.6279 107.049 41.2517 106.743 39.0524 106.131C36.8278 105.519 35.033 104.754 33.6426 103.862C30.8366 102.153 28.8901 100.496 27.7778 98.8897L27.0447 98.0228Z" fill="white"/>
<path d="M76.4152 47.512H120.553C122.247 47.512 123.485 47.7159 124.294 48.1239C125.078 48.5319 125.609 49.1438 125.887 50.0107C126.14 50.8777 126.291 51.9741 126.291 53.3764C126.291 54.7533 126.165 55.8752 125.887 56.6911C125.634 57.507 125.179 58.0935 124.547 58.425C123.586 58.9094 122.247 59.1389 120.502 59.1389H105.335V99.3997C105.335 100.624 105.284 101.541 105.208 102.128C105.132 102.714 104.88 103.403 104.5 104.168C104.096 104.933 103.413 105.494 102.402 105.8C101.391 106.131 100.077 106.284 98.4335 106.284C96.7903 106.284 95.4758 106.131 94.5152 105.8C93.5293 105.468 92.8467 104.933 92.4423 104.168C92.0378 103.403 91.8103 102.689 91.7344 102.077C91.6586 101.465 91.608 100.547 91.608 99.3232V59.1134H76.3394C74.6456 59.1134 73.407 58.9094 72.598 58.5015C71.8144 58.0935 71.2835 57.4815 71.0054 56.6146C70.7526 55.7732 70.601 54.6513 70.601 53.2489C70.601 51.8721 70.7273 50.7502 71.0054 49.9342C71.2582 49.1183 71.7132 48.5319 72.3452 48.2004C73.3311 47.7669 74.6709 47.512 76.4152 47.512Z" fill="white"/>
<path d="M177.709 55.4417C177.027 54.7788 176.344 54.1413 175.636 53.5549L168.963 66.7627C169.215 67.0687 169.443 67.3746 169.645 67.6806L181.779 60.4138C180.642 58.6544 179.277 56.9971 177.709 55.4417ZM183.675 63.8559L172.299 77.2167C172.274 82.0358 170.783 85.8859 167.774 88.7417C165.095 91.2914 162.112 92.7193 158.851 92.9998L148.132 105.621C151.141 106.692 154.351 107.227 157.789 107.227C165.828 107.227 172.603 104.244 178.114 98.3033C183.625 92.3623 186.38 85.1465 186.38 76.6813C186.355 71.9897 185.47 67.7061 183.675 63.8559ZM157.309 46.8745C153.669 46.8745 150.104 47.6139 146.666 49.1183C143.228 50.6227 140.195 52.6625 137.54 55.2887C134.886 57.915 132.788 61.1532 131.195 65.0033C129.603 68.879 128.819 73.0351 128.819 77.4462C128.819 82.0613 129.729 86.3194 131.549 90.2205L132.51 89.0731L142.849 76.9107C142.874 72.2192 144.391 68.42 147.374 65.4623C150.054 62.836 153.037 61.3572 156.323 61.0767L167.016 48.5064C163.983 47.4355 160.747 46.8745 157.309 46.8745ZM145.428 86.2684L133.445 93.6627C134.532 95.3201 135.796 96.9264 137.237 98.4308C137.97 99.1957 138.729 99.9096 139.512 100.573L146.211 87.3138C145.933 86.9568 145.68 86.6254 145.428 86.2684Z" fill="white"/>
<path d="M240.174 96.3655C237.748 90.807 235.927 86.6253 234.79 83.7951C238.759 79.894 240.731 74.9474 240.731 68.9045C240.731 65.4368 240.048 62.2751 238.658 59.4448C237.293 56.6146 235.548 54.3708 233.425 52.7135C229.026 49.2968 224.501 47.5884 219.85 47.5884H202.711C199.323 47.5884 197.25 48.3024 196.517 49.7557C196.087 50.5462 195.835 51.2601 195.759 51.872C195.683 52.484 195.632 53.4019 195.632 54.6258V99.0682C195.632 100.93 195.784 102.332 196.113 103.224C196.745 105.213 198.919 106.182 202.635 106.182C206.022 106.182 208.095 105.468 208.828 104.015C209.258 103.224 209.511 102.51 209.586 101.898C209.662 101.287 209.713 100.369 209.713 99.1447V90.1185H219.723L222.176 89.9655C225.765 98.6092 227.838 103.454 228.369 104.448C228.698 104.984 229.178 105.494 229.835 106.004C230.492 106.514 231.352 106.768 232.363 106.768C233.4 106.768 234.765 106.386 236.458 105.647C239.745 104.27 241.388 102.561 241.388 100.522C241.363 99.6546 240.958 98.2778 240.174 96.3655ZM224.451 74.1825C222.909 75.3554 221.392 75.9418 219.85 75.9418H209.688V61.7651H219.698C221.341 61.7651 222.934 62.3771 224.451 63.5755C225.993 64.7739 226.751 66.5587 226.751 68.9045C226.751 71.2503 225.993 73.0096 224.451 74.1825Z" fill="white"/>
<path d="M311.69 49.8323C312.119 50.6227 312.372 51.3621 312.448 51.9996C312.524 52.637 312.574 53.5804 312.574 54.8043V99.2467C312.574 102.918 311.563 105.086 309.566 105.723C308.555 106.055 307.291 106.208 305.749 106.208C304.207 106.208 302.993 106.08 302.109 105.8C301.199 105.545 300.516 105.213 300.036 104.831C299.555 104.448 299.176 103.913 298.923 103.224C298.671 102.306 298.519 100.93 298.519 99.0682V72.2447C297.204 73.9021 295.258 76.5283 292.73 80.1235C290.202 83.7187 288.584 85.9879 287.876 86.8804C287.194 87.7983 286.714 88.4102 286.435 88.7672C286.157 89.1242 285.525 89.5831 284.489 90.2206C283.453 90.8325 282.34 91.1385 281.152 91.1385C279.964 91.1385 278.877 90.858 277.891 90.2971C276.905 89.7361 276.223 89.2006 275.793 88.6652L275.161 87.7728C274.099 86.4469 272.001 83.5912 268.892 79.2566C265.757 74.8965 264.063 72.5762 263.811 72.2447V99.2212C263.811 100.445 263.76 101.363 263.684 101.975C263.608 102.587 263.355 103.275 262.926 104.015C262.142 105.468 260.069 106.182 256.732 106.182C253.497 106.182 251.499 105.468 250.691 104.015C250.261 103.275 250.008 102.561 249.932 101.924C249.856 101.287 249.806 100.318 249.806 99.0427V54.6513C249.806 53.4274 249.856 52.5095 249.932 51.8976C250.008 51.2856 250.261 50.5717 250.691 49.7813C251.474 48.4044 253.547 47.6905 256.884 47.6905C258.325 47.6905 259.538 47.869 260.575 48.2004C261.611 48.5574 262.294 48.9144 262.597 49.2713L263.077 49.7558L281.102 73.6216C290.101 61.6122 296.092 53.6824 299.126 49.8323C300.036 48.3789 302.159 47.665 305.521 47.665C308.909 47.665 310.956 48.4044 311.69 49.8323Z" fill="white"/>
<path d="M369.251 48.7104C371.854 50.5207 373.144 52.28 373.144 53.9884C373.144 55.0083 372.537 56.4107 371.323 58.221L354.159 84.1011V99.3997C354.159 100.624 354.108 101.542 354.032 102.153C353.957 102.765 353.704 103.479 353.274 104.27C352.844 105.06 352.136 105.621 351.125 105.953C350.114 106.284 348.774 106.437 347.081 106.437C345.387 106.437 344.047 106.284 343.036 105.953C342.025 105.621 341.317 105.06 340.887 104.219C340.457 103.403 340.205 102.663 340.129 102.051C340.053 101.44 340.002 100.496 340.002 99.2212V84.1011L322.888 58.2465C321.675 56.4362 321.068 55.0083 321.068 54.0139C321.068 52.3055 322.231 50.6737 324.557 49.0928C326.882 47.512 328.551 46.7216 329.562 46.7216C330.573 46.7216 331.357 46.9255 331.938 47.359C332.848 47.9454 333.784 49.0418 334.795 50.6482L347.106 70.5109L359.417 50.6482C360.428 49.0418 361.288 47.9964 362.046 47.4865C362.779 46.9765 363.639 46.7216 364.624 46.7216C365.585 46.7216 367.127 47.3845 369.251 48.7104Z" fill="white"/>
<path d="M131.018 117.427L129.224 120.996H46.1305C45.1446 120.996 44.361 120.206 44.361 119.211C44.361 118.217 45.1446 117.427 46.1305 117.427H131.018Z" fill="white"/>
<path d="M348.875 119.211C348.875 120.206 348.092 120.996 347.106 120.996H135.063L138.097 117.427H347.08C348.066 117.427 348.875 118.217 348.875 119.211Z" fill="white"/>
<path d="M164.362 72.4742L184.838 60.2353L139.765 113.168L136.529 116.993L127.024 128.161L132.662 116.993L134.583 113.168L150.61 81.4238L134.102 91.5974L132.813 92.4133L131.499 93.2038L130.462 93.8412L129.906 94.1982L132.308 91.3934L133.369 90.1185L187.72 26.1959L164.362 72.4742Z" fill="white"/>
<defs>
<linearGradient id="paint0_linear" x1="-2.7093e-07" y1="77" x2="399.904" y2="93.3584" gradientUnits="userSpaceOnUse">
<stop stop-color="#2D8ED3"/>
<stop offset="1" stop-color="#0E66A4"/>
</linearGradient>
</defs>
</svg>