<svg width="23" height="23" viewBox="0 0 23 23" fill="none" xmlns="http://www.w3.org/2000/svg">
<path d="M12 18.8476L11.2413 18.0544L11.2307 18.0433L11.2195 18.0329C9.13142 16.1018 7.44367 14.5199 6.27307 13.031C5.10871 11.5499 4.5 10.2144 4.5 8.78182C4.5 6.44405 6.21686 4.68182 8.4 4.68182C9.60207 4.68182 10.8218 5.27718 11.6113 6.25274L12 6.73294L12.3887 6.25274C13.1782 5.27718 14.3979 4.68182 15.6 4.68182C17.7831 4.68182 19.5 6.44405 19.5 8.78182C19.5 10.2144 18.8913 11.5499 17.7269 13.031C16.5563 14.5199 14.8686 16.1018 12.7805 18.0329L12.7693 18.0433L12.7587 18.0544L12 18.8476Z" stroke="black"/>
</svg>
