<svg width="77" height="77" viewBox="0 0 77 77" fill="none" xmlns="http://www.w3.org/2000/svg">
<path d="M55.4682 64.5554C60.8462 59.2073 63.8537 50.8332 64.4905 39.4332L66.6134 0.166504H76.1665L74.0436 39.8554C73.5483 49.1443 71.8853 56.5332 69.0548 62.0221C66.295 67.511 61.6954 72.2258 55.2559 76.1665C49.5948 72.1554 45.6674 67.2295 43.4738 61.3887C41.2801 55.4776 39.5818 47.4906 38.3788 37.4276H37.9542C37.3881 47.9128 36.0082 55.7239 33.8145 60.861C31.6916 65.998 27.4458 71.0998 21.0771 76.1665C14.6376 72.2258 10.0026 67.511 7.17209 62.0221C4.41231 56.5332 2.78475 49.1443 2.28941 39.8554L0.166504 0.166504H9.71958L11.8425 39.4332C12.4793 50.8332 15.4868 59.2073 20.8648 64.5554C24.3322 61.5998 26.9151 57.2017 28.6134 51.361C30.3118 45.4498 31.9039 36.1258 33.39 23.3887H42.943C44.9244 34.3665 46.7289 42.8813 48.3565 48.9332C49.984 54.985 51.2224 58.8202 52.0715 60.4387C52.9915 62.0572 54.1237 63.4295 55.4682 64.5554Z" fill="#030303"/>
</svg>
