<svg width="12" height="12" viewBox="0 0 12 12" fill="none" xmlns="http://www.w3.org/2000/svg">
<path d="M11.8846 10.0435H3.46154C3.39808 10.0435 3.34615 10.1022 3.34615 10.1739V11.087C3.34615 11.1587 3.39808 11.2174 3.46154 11.2174H11.8846C11.9481 11.2174 12 11.1587 12 11.087V10.1739C12 10.1022 11.9481 10.0435 11.8846 10.0435ZM11.8846 0.782609H3.46154C3.39808 0.782609 3.34615 0.841304 3.34615 0.913043V1.82609C3.34615 1.89783 3.39808 1.95652 3.46154 1.95652H11.8846C11.9481 1.95652 12 1.89783 12 1.82609V0.913043C12 0.841304 11.9481 0.782609 11.8846 0.782609ZM11.8846 5.41304H3.46154C3.39808 5.41304 3.34615 5.47174 3.34615 5.54348V6.45652C3.34615 6.52826 3.39808 6.58696 3.46154 6.58696H11.8846C11.9481 6.58696 12 6.52826 12 6.45652V5.54348C12 5.47174 11.9481 5.41304 11.8846 5.41304ZM1.73077 9.26087H0.0576923C0.0259615 9.26087 0 9.29022 0 9.32609V9.88043C0 9.9163 0.0259615 9.94565 0.0576923 9.94565H1.10192V10.2799H0.587019C0.555288 10.2799 0.529327 10.3092 0.529327 10.3451V10.8995C0.529327 10.9353 0.555288 10.9647 0.587019 10.9647H1.10192V11.3152H0.0576923C0.0259615 11.3152 0 11.3446 0 11.3804V11.9348C0 11.9707 0.0259615 12 0.0576923 12H1.73077C1.7625 12 1.78846 11.9707 1.78846 11.9348V9.32609C1.78846 9.29022 1.7625 9.26087 1.73077 9.26087ZM0.0576923 0.717391H0.605769V2.67391C0.605769 2.70978 0.631731 2.73913 0.663462 2.73913H1.24038C1.27212 2.73913 1.29808 2.70978 1.29808 2.67391V0.130435C1.29808 0.0586957 1.24615 0 1.18269 0H0.0576923C0.0259615 0 0 0.0293478 0 0.0652174V0.652174C0 0.688043 0.0259615 0.717391 0.0576923 0.717391ZM1.73077 4.63043H0.0576923C0.0259615 4.63043 0 4.65978 0 4.69565V5.28261C0 5.31848 0.0259615 5.34783 0.0576923 5.34783H1.04423L0.0302884 6.61467C0.0111644 6.63896 0.00041273 6.67021 0 6.70272V7.30435C0 7.34022 0.0259615 7.36957 0.0576923 7.36957H1.73077C1.7625 7.36957 1.78846 7.34022 1.78846 7.30435V6.71739C1.78846 6.68152 1.7625 6.65217 1.73077 6.65217H0.744231L1.75817 5.38533C1.7773 5.36104 1.78805 5.32979 1.78846 5.29728V4.69565C1.78846 4.65978 1.7625 4.63043 1.73077 4.63043V4.63043Z" fill="black"/>
</svg>
