<svg width="22" height="22" viewBox="0 0 22 22" fill="none" xmlns="http://www.w3.org/2000/svg">
<path d="M20.8408 19.9549L15.7308 14.845C17.1016 13.2691 17.9315 11.213 17.9315 8.96574C17.9315 4.01896 13.9078 0 8.96574 0C4.01896 0 0 4.02362 0 8.96574C0 13.9078 4.02362 17.9315 8.96574 17.9315C11.213 17.9315 13.2691 17.1016 14.845 15.7308L19.9549 20.8408C20.0762 20.962 20.2393 21.0273 20.3979 21.0273C20.5564 21.0273 20.7196 20.9667 20.8408 20.8408C21.0832 20.5983 21.0832 20.1974 20.8408 19.9549ZM1.25418 8.96574C1.25418 4.71366 4.71365 1.25884 8.96107 1.25884C13.2132 1.25884 16.668 4.71832 16.668 8.96574C16.668 13.2132 13.2132 16.6773 8.96107 16.6773C4.71365 16.6773 1.25418 13.2178 1.25418 8.96574Z" fill="black"/>
</svg>
