<svg width="45" height="45" viewBox="0 0 45 45" fill="none" xmlns="http://www.w3.org/2000/svg">
<rect y="22.2709" width="31.3381" height="31.3381" transform="rotate(-45.2891 0 22.2709)" fill="white"/>
<path d="M17.7994 24.6369H17.8002C17.8009 24.6369 17.8016 24.6367 17.8023 24.6367H27.3633C27.5987 24.6367 27.8056 24.4806 27.8703 24.2543L29.9797 16.8714C30.0251 16.7123 29.9933 16.5412 29.8937 16.4091C29.794 16.2769 29.6381 16.1992 29.4727 16.1992H16.5832L16.2063 14.5028C16.1526 14.2615 15.9386 14.0898 15.6914 14.0898H12.5273C12.2361 14.0898 12 14.3259 12 14.6172C12 14.9085 12.2361 15.1445 12.5273 15.1445H15.2684C15.3352 15.4451 17.0724 23.2627 17.1724 23.7125C16.6119 23.9561 16.2188 24.5149 16.2188 25.1641C16.2188 26.0364 16.9285 26.7461 17.8008 26.7461H27.3633C27.6546 26.7461 27.8906 26.51 27.8906 26.2188C27.8906 25.9275 27.6546 25.6914 27.3633 25.6914H17.8008C17.5101 25.6914 17.2734 25.4548 17.2734 25.1641C17.2734 24.8738 17.5092 24.6375 17.7994 24.6369ZM28.7735 17.2539L26.9654 23.582H18.2238L16.8175 17.2539H28.7735Z" fill="black"/>
<path d="M17.2734 28.3281C17.2734 29.2004 17.9832 29.9102 18.8555 29.9102C19.7278 29.9102 20.4375 29.2004 20.4375 28.3281C20.4375 27.4558 19.7278 26.7461 18.8555 26.7461C17.9832 26.7461 17.2734 27.4558 17.2734 28.3281ZM18.8555 27.8008C19.1462 27.8008 19.3828 28.0374 19.3828 28.3281C19.3828 28.6189 19.1462 28.8555 18.8555 28.8555C18.5647 28.8555 18.3281 28.6189 18.3281 28.3281C18.3281 28.0374 18.5647 27.8008 18.8555 27.8008Z" fill="black"/>
<path d="M24.7266 28.3281C24.7266 29.2004 25.4363 29.9102 26.3086 29.9102C27.1809 29.9102 27.8906 29.2004 27.8906 28.3281C27.8906 27.4558 27.1809 26.7461 26.3086 26.7461C25.4363 26.7461 24.7266 27.4558 24.7266 28.3281ZM26.3086 27.8008C26.5993 27.8008 26.8359 28.0374 26.8359 28.3281C26.8359 28.6189 26.5993 28.8555 26.3086 28.8555C26.0179 28.8555 25.7812 28.6189 25.7812 28.3281C25.7812 28.0374 26.0179 27.8008 26.3086 27.8008Z" fill="black"/>
</svg>
 