<svg width="112" height="112" viewBox="0 0 112 112" fill="none" xmlns="http://www.w3.org/2000/svg">
<rect x="0.707107" y="55.532" width="77.5341" height="77.5341" transform="rotate(-45 0.707107 55.532)" stroke="black"/>
<path d="M63.7707 47.2711C63.7707 51.5611 60.2789 55.0422 55.9676 55.0422C51.6562 55.0422 48.1644 51.5611 48.1644 47.2711C48.1644 42.9811 51.6562 39.5 55.9676 39.5C60.2789 39.5 63.7707 42.9811 63.7707 47.2711Z" stroke="black"/>
<path d="M66.9055 62.4638C69.6874 65.2351 71.2998 68.9529 71.427 72.8568H55.9676L40.5081 72.8568C40.6353 68.9529 42.2477 65.2351 45.0297 62.4638C47.9302 59.5745 51.8647 57.9509 55.9676 57.9509C60.0704 57.9509 64.0049 59.5745 66.9055 62.4638Z" stroke="black"/>
</svg>
